<?xml version="1.0" encoding="UTF-8" standalone="no"?>
<!-- Created with Inkscape (http://www.inkscape.org/) -->

<svg
   width="1.7069322in"
   height="1.7070618in"
   viewBox="0 0 43.356078 43.359368"
   version="1.1"
   id="svg1"
   xml:space="preserve"
   inkscape:version="1.3.2 (091e20e, 2023-11-25, custom)"
   sodipodi:docname="icon set final.svg"
   xmlns:inkscape="http://www.inkscape.org/namespaces/inkscape"
   xmlns:sodipodi="http://sodipodi.sourceforge.net/DTD/sodipodi-0.dtd"
   xmlns="http://www.w3.org/2000/svg"
   xmlns:svg="http://www.w3.org/2000/svg"><sodipodi:namedview
     id="namedview1"
     pagecolor="#ffffff"
     bordercolor="#000000"
     borderopacity="0.25"
     inkscape:showpageshadow="2"
     inkscape:pageopacity="0.0"
     inkscape:pagecheckerboard="0"
     inkscape:deskcolor="#d1d1d1"
     inkscape:document-units="mm"
     inkscape:zoom="4"
     inkscape:cx="6681"
     inkscape:cy="1532.375"
     inkscape:window-width="1350"
     inkscape:window-height="729"
     inkscape:window-x="0"
     inkscape:window-y="0"
     inkscape:window-maximized="0"
     inkscape:current-layer="g934"
     showguides="true"
     showgrid="false"><sodipodi:guide
       position="1673.1121,1781.2464"
       orientation="0,-1"
       id="guide9"
       inkscape:locked="false" /><sodipodi:guide
       position="1709.6894,1790.2537"
       orientation="0,-1"
       id="guide2056"
       inkscape:locked="false" /><sodipodi:guide
       position="2400.4397,1528.1344"
       orientation="1,0"
       id="guide764"
       inkscape:locked="false" /><sodipodi:guide
       position="2417.5583,1526.8248"
       orientation="1,0"
       id="guide765"
       inkscape:locked="false" /><sodipodi:guide
       position="2790.3091,1804.2071"
       orientation="1,0"
       id="guide634"
       inkscape:locked="false" /><sodipodi:guide
       position="2760.3983,1697.169"
       orientation="1,0"
       id="guide652"
       inkscape:locked="false" /><sodipodi:guide
       position="2769.0979,1793.052"
       orientation="1,0"
       id="guide669"
       inkscape:locked="false" /><sodipodi:guide
       position="80.715093,1251.0909"
       orientation="1,0"
       id="guide283"
       inkscape:locked="false" /><sodipodi:guide
       position="77.639313,1256.9014"
       orientation="0,-1"
       id="guide438"
       inkscape:locked="false" /><sodipodi:guide
       position="2284.7603,1531.913"
       orientation="0,-1"
       id="guide661"
       inkscape:locked="false" /><sodipodi:guide
       position="2275.318,1486.2062"
       orientation="0,-1"
       id="guide666"
       inkscape:locked="false" /><sodipodi:guide
       position="2283.6524,1509.7542"
       orientation="0,-1"
       id="guide667"
       inkscape:locked="false" /><sodipodi:guide
       position="2297.0732,1465.2726"
       orientation="0,-1"
       id="guide668"
       inkscape:locked="false" /><sodipodi:guide
       position="2288.28,1447.125"
       orientation="0,-1"
       id="guide670"
       inkscape:locked="false" /><sodipodi:guide
       position="2251.6107,1466.9564"
       orientation="1,0"
       id="guide671"
       inkscape:locked="false" /><inkscape:page
       x="5.5891674e-06"
       y="-1.9224339e-05"
       width="43.356075"
       height="43.359367"
       id="page10"
       margin="0"
       bleed="0" /></sodipodi:namedview><defs
     id="defs1" /><g
     id="g934"
     inkscape:groupmode="layer"
     inkscape:label="8"
     transform="matrix(0.26458333,0,0,0.26458334,828.97225,-1656.9948)"><g
       id="g306"
       style="stroke:#000000;stroke-opacity:1"
       inkscape:export-filename="..\ICON SET FILES\ICON SET SOURCE FILES\CHANNEL 1\face to face interaction.png"
       inkscape:export-xdpi="300"
       inkscape:export-ydpi="300"><path
         id="path278"
         style="fill:none;stroke:#000000;stroke-width:5.53332;stroke-linecap:round;stroke-linejoin:round;stroke-dasharray:none;stroke-opacity:1"
         d="m -3009.185,6292.6437 c 0,6.0984 -3.0946,11.7286 -8.3225,16.2658 -1.5432,1.3398 4.3586,17.7936 2.4692,18.927 -2.0715,1.2415 -11.9656,-12.8598 -14.3909,-11.9061 -6.3469,2.4958 -13.7955,3.9327 -21.7614,3.9327 -7.3718,0 -14.3002,-1.2306 -20.3228,-3.3917 -1.9722,-0.7074 -12.4893,14.4227 -14.2505,13.5256 -2.0975,-1.0687 4.6072,-18.201 2.8588,-19.5043 -6.4105,-4.7783 -10.2918,-11.0201 -10.2918,-17.849 6e-4,-15.0331 18.8062,-27.2201 42.0063,-27.2201 23.1995,0 42.005,12.187 42.0056,27.2201 z"
         sodipodi:nodetypes="sssssssssss" /><g
         id="g442-3"
         style="stroke:#000000;stroke-width:1.00157;stroke-dasharray:none;stroke-opacity:1"
         transform="matrix(5.4997828,0,0,5.474296,12538.99,-6408.5701)"><g
           id="g441-0"
           transform="translate(0,-21.402543)"
           style="stroke:#000000;stroke-width:1.00157;stroke-dasharray:none;stroke-opacity:1"><g
             id="g1247-6-8"
             transform="matrix(0.56834641,0,0,0.58565034,-6776.8833,2014.4933)"
             style="stroke:#000000;stroke-width:1.73603;stroke-dasharray:none;stroke-opacity:1"><g
               id="g1222-0-92"
               transform="matrix(0.90037117,0,0,0.90037117,3954.413,373.27082)"
               style="stroke:#000000;stroke-width:1.92813;stroke-dasharray:none;stroke-opacity:1"><path
                 style="opacity:1;fill:none;stroke:#000000;stroke-width:1.92813;stroke-linecap:round;stroke-linejoin:round;stroke-dasharray:none;stroke-opacity:1"
                 d="m 3283.6386,250.7293 c 0,0 0.1726,-5.03503 2.2787,-7.55548 0.8632,-1.0358 2.0716,-1.62276 2.0716,-1.62276 0,0 4.3504,-1.20843 4.454,-3.24551 0.034,-0.72506 0.017,-1.27748 0.017,-1.27748"
                 id="path1212-2-43"
                 sodipodi:nodetypes="csccc" /><path
                 style="opacity:1;fill:none;stroke:#000000;stroke-width:1.92813;stroke-linecap:round;stroke-linejoin:round;stroke-dasharray:none;stroke-opacity:1"
                 d="m 3308.9192,250.7293 c 0,0 -0.1726,-5.03503 -2.2787,-7.55548 -0.8632,-1.0358 -2.0716,-1.62276 -2.0716,-1.62276 0,0 -4.3504,-1.20843 -4.454,-3.24551 -0.034,-0.72506 -0.017,-1.27748 -0.017,-1.27748"
                 id="path1213-9-6"
                 sodipodi:nodetypes="csccc" /></g><g
               id="g1244-9-3"
               transform="matrix(0.15777663,0,0,0.16269882,6728.9816,409.96603)"
               style="stroke:#000000;stroke-width:10.8354;stroke-dasharray:none;stroke-opacity:1"><g
                 id="g1241-6-3"
                 style="stroke:#000000;stroke-width:10.8354;stroke-dasharray:none;stroke-opacity:1"><g
                   id="g1228-0-48"
                   transform="translate(43.628948)"
                   style="stroke:#000000;stroke-width:10.8354;stroke-dasharray:none;stroke-opacity:1"><path
                     id="path1224-7-5"
                     style="opacity:1;fill:none;stroke:#000000;stroke-width:10.8354;stroke-linecap:round;stroke-linejoin:round;stroke-dasharray:none;stroke-opacity:1"
                     d="m 1181.5064,1095.9905 c 14.0615,0 23.5948,-9.3411 28.2655,-23.0874 0.1612,-0.4744 -0.073,-2.4192 0.5647,-2.497 7.1264,-0.8683 8.2181,-8.287 8.9994,-12.0951 1.5469,-7.5395 -1.2744,-12.0681 -4.9363,-10.2261 0,0 -4.1797,3.3169 -4.4437,2.165 -3.279,-14.3031 -9.2671,-18.1886 -12.9156,-19.8697 -3.281,3.0017 -8.4073,6.7886 -15.7085,7.1431"
                     sodipodi:nodetypes="cssssscc" /></g><path
                   id="path1235-0-3"
                   style="opacity:1;fill:none;stroke:#000000;stroke-width:10.8354;stroke-linecap:round;stroke-linejoin:round;stroke-dasharray:none;stroke-opacity:1"
                   d="m 1224.9298,1095.9905 c -14.0615,0 -23.5948,-9.3411 -28.2655,-23.0874 -0.1612,-0.4744 0.073,-2.4192 -0.5647,-2.497 -7.1264,-0.8683 -8.2181,-8.287 -8.9994,-12.0951 -1.5469,-7.5395 2.7499,-12.4583 6.4118,-10.6163 0,0 4.4205,3.3447 4.4437,2.165 0.1939,-9.8806 6.182,-15.5871 9.8305,-17.2682 3.281,3.0017 11.4253,5.5529 17.3181,4.9318"
                   sodipodi:nodetypes="cssssscc" /></g><path
                 style="opacity:1;fill:none;stroke:#000000;stroke-width:10.8354;stroke-linecap:round;stroke-linejoin:round;stroke-dasharray:none;stroke-opacity:1"
                 d="m 1189.6242,1047.7871 c 0,0 -9.0035,-25.4801 13.1903,-38.5407 22.1938,-13.06062 41.3527,-2.0235 41.3527,-2.0235 0,0 22.1939,10.4853 16.5031,32.7436 -0.9485,4.9667 -1.1383,8.2779 -1.1383,8.2779"
                 id="path1244-4-6"
                 sodipodi:nodetypes="csccc" /></g></g><g
             id="g1252-0-3"
             transform="translate(-9631.3304,1760.1581)"
             style="stroke:#000000;stroke-width:1.00157;stroke-dasharray:none;stroke-opacity:1"><g
               id="g1250-3-78"
               style="stroke:#000000;stroke-width:1.00157;stroke-dasharray:none;stroke-opacity:1"><path
                 style="fill:none;stroke:#000000;stroke-width:1.00157;stroke-linecap:round;stroke-linejoin:round;stroke-dasharray:none;stroke-opacity:1"
                 d="m 6788.418,599.79831 -0.4932,4.48797 0.8459,1.07032 0.8459,-1.07032 -0.6808,-4.48797"
                 id="path1250-8-1"
                 sodipodi:nodetypes="ccccc" /></g><path
               style="fill:none;stroke:#000000;stroke-width:1.00157;stroke-linecap:round;stroke-linejoin:round;stroke-dasharray:none;stroke-opacity:1"
               d="m 6786.1294,599.7978 1.312,1.03581 0.8286,-0.84246"
               id="path1251-0-6"
               sodipodi:nodetypes="ccc" /><path
               style="fill:none;stroke:#000000;stroke-width:1.00157;stroke-linecap:round;stroke-linejoin:round;stroke-dasharray:none;stroke-opacity:1"
               d="m 6791.3083,599.7978 -1.312,1.03581 -0.8286,-0.93085"
               id="path1252-6-9"
               sodipodi:nodetypes="ccc" /></g></g></g><g
         id="g252-0"
         transform="matrix(0.69093643,0,0,0.70003728,-5099.3481,5427.6416)"
         style="stroke:#000000;stroke-width:7.95621;stroke-dasharray:none;stroke-opacity:1"
         inkscape:export-filename="ICON SET SOURCE FILES\customer 9.svg"
         inkscape:export-xdpi="300"
         inkscape:export-ydpi="300"><g
           id="g702"
           inkscape:export-filename="customer 9.png"
           inkscape:export-xdpi="300"
           inkscape:export-ydpi="300"
           style="stroke:#000000;stroke-width:7.95621;stroke-dasharray:none;stroke-opacity:1"><g
             id="g251-7"
             transform="matrix(1.0369141,0,0,1.0369141,364.77245,-52.59665)"
             style="stroke:#000000;stroke-width:7.67297;stroke-dasharray:none;stroke-opacity:1"><path
               style="fill:none;stroke:#000000;stroke-width:7.67297;stroke-linecap:round;stroke-linejoin:round;stroke-dasharray:none;stroke-opacity:1"
               d="m 2554.5932,1350.882 c -10.5035,-0.2797 -19.718,-46.2482 20.8605,-45.6305 16.0068,0.2436 22.8032,16.2494 22.8032,16.2494 0,0 8.5374,12.3138 0.7356,27.6545 0.3467,0.031 7.5348,5.5752 6.1324,13.6605 -1.4024,8.0851 -5.6602,10.8576 -5.6602,10.8576"
               id="path245-8"
               sodipodi:nodetypes="csccsc" /><g
               id="g250-8"
               transform="matrix(0.68437427,0,0,0.72351843,2076.0775,571.83401)"
               style="stroke:#000000;stroke-width:10.9041;stroke-dasharray:none;stroke-opacity:1"><g
                 id="g248-3"
                 transform="matrix(5.3181067,0,0,5.3181067,-16805.869,-173.49605)"
                 style="stroke:#000000;stroke-width:2.05038;stroke-dasharray:none;stroke-opacity:1"><path
                   style="opacity:1;fill:none;stroke:#000000;stroke-width:2.05038;stroke-linecap:round;stroke-linejoin:round;stroke-dasharray:none;stroke-opacity:1"
                   d="m 3283.6386,253.80804 c 0,0 0.1726,-8.11377 2.2787,-10.63422 0.8632,-1.0358 2.0716,-1.62276 2.0716,-1.62276 0,0 4.3504,-1.20843 4.454,-3.24551 0.034,-0.72506 0.017,-1.27748 0.017,-1.27748"
                   id="path246-8" /><path
                   style="opacity:1;fill:none;stroke:#000000;stroke-width:2.05038;stroke-linecap:round;stroke-linejoin:round;stroke-dasharray:none;stroke-opacity:1"
                   d="m 3308.9192,253.80804 c 0,0 -0.1726,-8.11377 -2.2787,-10.63422 -0.8632,-1.0358 -2.0716,-1.62276 -2.0716,-1.62276 0,0 -4.3504,-1.20843 -4.454,-3.24551 -0.034,-0.72506 -0.017,-1.27748 -0.017,-1.27748"
                   id="path247-1" /><path
                   style="opacity:1;fill:none;stroke:#000000;stroke-width:2.05038;stroke-linecap:round;stroke-linejoin:round;stroke-dasharray:none;stroke-opacity:1"
                   d="m 3291.4287,240.47852 c 0,0 3.0782,6.85156 4.9725,6.89696 1.8944,0.0454 4.8795,-6.79116 4.8795,-6.79116"
                   id="path248-4"
                   sodipodi:nodetypes="czc" /></g><g
                 id="g249-5"
                 transform="translate(-298.10717)"
                 style="stroke:#000000;stroke-width:10.9041;stroke-dasharray:none;stroke-opacity:1"><path
                   style="opacity:1;fill:none;stroke:#000000;stroke-width:10.9041;stroke-linecap:round;stroke-linejoin:round;stroke-dasharray:none;stroke-opacity:1"
                   d="m 1021.2382,1097.461 c 0,0 -28.51551,1.3672 -25.58591,-45.8985 l -0.1953,0.1954 c 0,0 24.80471,-0.1954 36.52351,-18.75 0,-0.3907 5.2734,14.8437 16.7968,17.3828 0.3907,0.1953 7.4219,45.8984 -27.5391,47.0703 z"
                   id="path249-2"
                   sodipodi:nodetypes="cccccc" /></g></g></g><path
             style="fill:none;stroke:#000000;stroke-width:7.95621;stroke-linecap:round;stroke-linejoin:round;stroke-dasharray:none;stroke-opacity:1"
             d="m 3014.8522,1372.0632 c 12.6958,7.5773 28.8163,3.6407 34.5238,-0.4762"
             id="path251-8"
             sodipodi:nodetypes="cc" /></g></g></g></g></svg>
