<?xml version="1.0" encoding="UTF-8" standalone="no"?>
<!-- Created with Inkscape (http://www.inkscape.org/) -->

<svg
   width="37.475395mm"
   height="37.61496mm"
   viewBox="0 0 37.475396 37.614961"
   version="1.1"
   id="svg1"
   xml:space="preserve"
   inkscape:version="1.4.2 (f4327f4, 2025-05-13)"
   sodipodi:docname="CHANNEL ICON SET 1 n 2.svg"
   inkscape:export-filename="C:\Users\victo\Desktop\Page 6.png"
   inkscape:export-xdpi="300"
   inkscape:export-ydpi="300"
   inkscape:export-batch-path="ICON SET SOURCE FILES - Copy\CHANNEL 1"
   inkscape:export-batch-name=""
   xmlns:inkscape="http://www.inkscape.org/namespaces/inkscape"
   xmlns:sodipodi="http://sodipodi.sourceforge.net/DTD/sodipodi-0.dtd"
   xmlns="http://www.w3.org/2000/svg"
   xmlns:svg="http://www.w3.org/2000/svg"><sodipodi:namedview
     id="namedview1"
     pagecolor="#ffffff"
     bordercolor="#000000"
     borderopacity="0.25"
     inkscape:showpageshadow="2"
     inkscape:pageopacity="0.0"
     inkscape:pagecheckerboard="0"
     inkscape:deskcolor="#d1d1d1"
     inkscape:document-units="mm"
     inkscape:zoom="0.25000001"
     inkscape:cx="7603.9998"
     inkscape:cy="4605.9999"
     inkscape:window-width="1366"
     inkscape:window-height="745"
     inkscape:window-x="-8"
     inkscape:window-y="-8"
     inkscape:window-maximized="1"
     inkscape:current-layer="g186-9"
     showguides="true"
     showgrid="false"><sodipodi:guide
       position="1704.4163,1388.2454"
       orientation="0,-1"
       id="guide620"
       inkscape:locked="false" /><sodipodi:guide
       position="1695.8111,1528.8499"
       orientation="0,-1"
       id="guide626"
       inkscape:locked="false" /><sodipodi:guide
       position="1698.0562,1500.0382"
       orientation="0,-1"
       id="guide627"
       inkscape:locked="false" /><sodipodi:guide
       position="1687.7663,1513.532"
       orientation="1,0"
       id="guide628"
       inkscape:locked="false" /><sodipodi:guide
       position="1702.8288,1446.7184"
       orientation="1,0"
       id="guide629"
       inkscape:locked="false" /><sodipodi:guide
       position="1698.898,1650.9019"
       orientation="0,-1"
       id="guide713"
       inkscape:locked="false" /><sodipodi:guide
       position="1700.0838,1440.203"
       orientation="0,-1"
       id="guide728"
       inkscape:locked="false" /><sodipodi:guide
       position="1700.1168,1520.5371"
       orientation="0,-1"
       id="guide873"
       inkscape:locked="false" /><sodipodi:guide
       position="1700.183,1509.8876"
       orientation="0,-1"
       id="guide874"
       inkscape:locked="false" /><sodipodi:guide
       position="1713.6105,1448.6697"
       orientation="1,0"
       id="guide894"
       inkscape:locked="false" /></sodipodi:namedview><defs
     id="defs1" /><g
     id="g186-9"
     inkscape:groupmode="layer"
     inkscape:label="4"
     transform="matrix(0.26458333,0,0,0.26458334,1284.4013,-1656.4006)"><g
       id="g897"
       transform="matrix(13.181265,0,0,13.181265,-31466.781,1041.4948)"
       inkscape:export-filename="ICON SET SOURCE FILES\CHANNEL 1\ICON SET SOURCE FILES\CHANNEL 1\face to face interaction.png"
       inkscape:export-xdpi="300"
       inkscape:export-ydpi="300"><g
         id="g894"><path
           id="path884"
           style="fill:none;stroke:#000000;stroke-width:0.578412;stroke-linecap:round;stroke-linejoin:round;stroke-dasharray:none;stroke-opacity:1"
           d="m 2027.3222,398.14574 c 0,0.43062 -0.2184,0.82817 -0.5876,1.14857 -0.1089,0.0946 0.3077,1.25648 0.1742,1.33653 -0.1461,0.0875 -0.8448,-0.90808 -1.0161,-0.84074 -0.448,0.17624 -0.974,0.2777 -1.5366,0.2777 -0.5205,0 -1.0099,-0.0867 -1.4349,-0.23952 -0.1395,-0.0499 -0.8819,1.01846 -1.0063,0.95512 -0.1483,-0.0755 0.3252,-1.28526 0.2017,-1.3773 -0.4526,-0.33738 -0.7267,-0.77817 -0.7267,-1.26036 1e-4,-1.06155 1.328,-1.92209 2.9662,-1.92209 1.6381,0 2.966,0.86054 2.9661,1.92209 z"
           sodipodi:nodetypes="sssssssssss" /><g
           id="g639-8-1"
           transform="matrix(0.21833609,0,0,0.20517062,1849.3371,508.00282)"
           style="stroke-width:2.36238;stroke-dasharray:none"><g
             id="g175-5-2-6"
             transform="matrix(0.18166874,0,0,0.19052882,574.1281,-709.49292)"
             style="stroke:#000000;stroke-width:12.6978;stroke-dasharray:none;stroke-opacity:1"><g
               id="g642-4-8"
               style="stroke-width:12.6978;stroke-dasharray:none"><path
                 id="path174-7-5-8"
                 style="opacity:1;fill:none;stroke:#000000;stroke-width:12.6978;stroke-linecap:round;stroke-linejoin:round;stroke-dasharray:none;stroke-opacity:1"
                 d="m 1181.1027,1093.89 c -13.9857,0 -23.4677,-9.2907 -28.1133,-22.9631 -0.1603,-0.4718 0.073,-2.4062 -0.5617,-2.4835 -7.088,-0.8636 -8.8732,-8.1689 -8.9509,-12.03 -0.2179,-10.8379 3.06,-10.5165 6.6078,-10.0795 0,0 -0.1302,-2.3503 -0.014,-3.5185 2.0469,-20.5276 9.5641,-36.1686 31.2056,-36.1686"
                 sodipodi:nodetypes="csssssc" /><path
                 id="path175-4-5-2"
                 style="opacity:1;fill:none;stroke:#000000;stroke-width:12.6978;stroke-linecap:round;stroke-linejoin:round;stroke-dasharray:none;stroke-opacity:1"
                 d="m 1181.5053,1093.89 c 13.9857,0 23.4677,-9.2907 28.1133,-22.9631 0.1603,-0.4718 -0.073,-2.4062 0.5617,-2.4835 7.088,-0.8636 8.8732,-8.1689 8.9509,-12.03 0.2179,-10.8379 -3.06,-10.5165 -6.6078,-10.0795 0,0 0.1302,-2.3503 0.014,-3.5185 -2.0469,-20.5276 -9.5641,-36.1686 -31.2056,-36.1686"
                 sodipodi:nodetypes="csssssc" /></g></g><g
             id="g178-4-1-7"
             transform="matrix(0.96613374,0,0,1.0132526,-2395.9082,-742.54892)"
             style="stroke:#000000;stroke-width:2.38766;stroke-dasharray:none;stroke-opacity:1"><path
               style="opacity:1;fill:none;stroke:#000000;stroke-width:2.38766;stroke-linecap:round;stroke-linejoin:round;stroke-dasharray:none;stroke-opacity:1"
               d="m 3285.1738,244.44784 c 0.2162,-0.50245 0.4627,-0.93795 0.7435,-1.27402 0.8632,-1.0358 2.0716,-1.62276 2.0716,-1.62276 0,0 4.3504,-1.20843 4.454,-3.24551 0.034,-0.72506 0.017,-1.27748 0.017,-1.27748"
               id="path176-4-7-7"
               sodipodi:nodetypes="ccccc" /><path
               style="opacity:1;fill:none;stroke:#000000;stroke-width:2.38766;stroke-linecap:round;stroke-linejoin:round;stroke-dasharray:none;stroke-opacity:1"
               d="m 3307.3398,244.347 c -0.2055,-0.45996 -0.4374,-0.85981 -0.6993,-1.17318 -0.8632,-1.0358 -2.0716,-1.62276 -2.0716,-1.62276 0,0 -4.3504,-1.20843 -4.454,-3.24551 -0.034,-0.72506 -0.017,-1.27748 -0.017,-1.27748"
               id="path177-4-1-1"
               sodipodi:nodetypes="ccccc" /></g></g><g
           id="g230-44-2"
           transform="matrix(0.05645873,0,0,0.05716821,1875.4,327.28312)"
           style="stroke:#000000;stroke-width:8.8009;stroke-dasharray:none;stroke-opacity:1"
           inkscape:export-filename="ICON SET SOURCE FILES\customer 7.png"
           inkscape:export-xdpi="300"
           inkscape:export-ydpi="300"><path
             style="fill:none;stroke:#000000;stroke-width:8.91684;stroke-linecap:round;stroke-linejoin:round;stroke-dasharray:none;stroke-opacity:1"
             d="m 2669.4693,1355.0863 c -4.1173,0.2901 -9.8244,1.2606 -14.8509,-6.1538 -4.9624,-7.3203 5.9217,-26.5275 5.9217,-26.5275 9.034,-18.2422 16.4276,-20.2949 28.9396,-20.2949 12.5123,0 20.5457,9.7879 28.6296,29.3034 12.0582,29.1101 -14.8697,23.1986 -14.8697,23.1986"
             id="path224-2-6"
             sodipodi:nodetypes="cscssc" /><g
             id="g229-79-0"
             transform="matrix(0.69400745,0,0,0.7337026,2184.6964,559.82726)"
             style="stroke:#000000;stroke-width:12.3335;stroke-dasharray:none;stroke-opacity:1"><g
               id="g227-2-4"
               transform="matrix(5.3181067,0,0,5.3181067,-16805.869,-173.49605)"
               style="stroke:#000000;stroke-width:2.31915;stroke-dasharray:none;stroke-opacity:1"><path
                 style="opacity:1;fill:none;stroke:#000000;stroke-width:2.31915;stroke-linecap:round;stroke-linejoin:round;stroke-dasharray:none;stroke-opacity:1"
                 d="m 3284.8396,243.78829 c 0.1769,-0.36038 0.3722,-0.67687 0.5877,-0.93479 0.8632,-1.0358 2.0716,-1.62276 2.0716,-1.62276 0,0 5.1578,-1.20843 5.2614,-3.24551"
                 id="path225-3-9"
                 sodipodi:nodetypes="cccc" /><path
                 style="opacity:1;fill:none;stroke:#000000;stroke-width:2.31915;stroke-linecap:round;stroke-linejoin:round;stroke-dasharray:none;stroke-opacity:1"
                 d="m 3307.5056,244.09451 c -0.1751,-0.35453 -0.3681,-0.66614 -0.5808,-0.92069 -0.8632,-1.0358 -2.0716,-1.62276 -2.0716,-1.62276 0,0 -4.8404,-1.20843 -4.944,-3.24551 -0.034,-0.72506 -0.017,-1.27748 -0.017,-1.27748"
                 id="path226-7-4"
                 sodipodi:nodetypes="ccccc" /></g><g
               id="g228-1-6"
               transform="translate(-298.10717)"
               style="stroke:#000000;stroke-width:12.3335;stroke-dasharray:none;stroke-opacity:1"><path
                 style="opacity:1;fill:none;stroke:#000000;stroke-width:11.8125;stroke-linecap:round;stroke-linejoin:round;stroke-dasharray:none;stroke-opacity:1"
                 d="m 1020.5335,1097.8703 c 0,0 -27.50407,1.4347 -24.67841,-48.1669 l -0.18837,0.2051 c 0,0 23.92488,5.2867 35.22788,-14.1846 0,-0.4101 5.0864,10.0852 16.201,12.7497 0.377,0.2051 7.1586,48.1669 -26.5621,49.3967 z"
                 id="path228-5-0"
                 sodipodi:nodetypes="cccccc" /></g></g></g></g></g></g></svg>
