<?xml version="1.0" encoding="UTF-8" standalone="no"?>
<!-- Created with Inkscape (http://www.inkscape.org/) -->

<svg
   width="37.642532mm"
   height="37.631893mm"
   viewBox="0 0 37.642533 37.631894"
   version="1.1"
   id="svg1"
   xml:space="preserve"
   inkscape:version="1.4.2 (f4327f4, 2025-05-13)"
   sodipodi:docname="CHANNEL ICON SET 1 n 2.svg"
   inkscape:export-filename="C:\Users\victo\Desktop\Page 6.png"
   inkscape:export-xdpi="300"
   inkscape:export-ydpi="300"
   inkscape:export-batch-path="ICON SET SOURCE FILES - Copy\CHANNEL 1"
   inkscape:export-batch-name=""
   xmlns:inkscape="http://www.inkscape.org/namespaces/inkscape"
   xmlns:sodipodi="http://sodipodi.sourceforge.net/DTD/sodipodi-0.dtd"
   xmlns="http://www.w3.org/2000/svg"
   xmlns:svg="http://www.w3.org/2000/svg"><sodipodi:namedview
     id="namedview1"
     pagecolor="#ffffff"
     bordercolor="#000000"
     borderopacity="0.25"
     inkscape:showpageshadow="2"
     inkscape:pageopacity="0.0"
     inkscape:pagecheckerboard="0"
     inkscape:deskcolor="#d1d1d1"
     inkscape:document-units="mm"
     inkscape:zoom="0.25000001"
     inkscape:cx="7603.9998"
     inkscape:cy="4605.9999"
     inkscape:window-width="1366"
     inkscape:window-height="745"
     inkscape:window-x="-8"
     inkscape:window-y="-8"
     inkscape:window-maximized="1"
     inkscape:current-layer="g186-9"
     showguides="true"
     showgrid="false"><sodipodi:guide
       position="1652.2797,1388.1779"
       orientation="0,-1"
       id="guide620"
       inkscape:locked="false" /><sodipodi:guide
       position="1643.6745,1528.7823"
       orientation="0,-1"
       id="guide626"
       inkscape:locked="false" /><sodipodi:guide
       position="1645.9196,1499.9707"
       orientation="0,-1"
       id="guide627"
       inkscape:locked="false" /><sodipodi:guide
       position="1635.6297,1513.4644"
       orientation="1,0"
       id="guide628"
       inkscape:locked="false" /><sodipodi:guide
       position="1650.6922,1446.6508"
       orientation="1,0"
       id="guide629"
       inkscape:locked="false" /><sodipodi:guide
       position="1646.7614,1650.8343"
       orientation="0,-1"
       id="guide713"
       inkscape:locked="false" /><sodipodi:guide
       position="1647.9472,1440.1354"
       orientation="0,-1"
       id="guide728"
       inkscape:locked="false" /><sodipodi:guide
       position="1647.9802,1520.4695"
       orientation="0,-1"
       id="guide873"
       inkscape:locked="false" /><sodipodi:guide
       position="1648.0464,1509.82"
       orientation="0,-1"
       id="guide874"
       inkscape:locked="false" /><sodipodi:guide
       position="1661.4739,1448.6021"
       orientation="1,0"
       id="guide894"
       inkscape:locked="false" /></sodipodi:namedview><defs
     id="defs1" /><g
     id="g186-9"
     inkscape:groupmode="layer"
     inkscape:label="4"
     transform="matrix(0.26458333,0,0,0.26458334,1232.2647,-1656.333)"><g
       id="g896"
       transform="matrix(13.181265,0,0,13.181265,-31069.745,1041.4948)"
       inkscape:export-filename="ICON SET SOURCE FILES\CHANNEL 1\ICON SET SOURCE FILES\CHANNEL 1\ICON SET SOURCE FILES\CHANNEL 1\face to face interaction 2.png"
       inkscape:export-xdpi="300"
       inkscape:export-ydpi="300"><g
         id="g730"><path
           id="path586"
           style="fill:none;stroke:#000000;stroke-width:0.578412;stroke-linecap:round;stroke-linejoin:round;stroke-dasharray:none;stroke-opacity:1"
           d="m 2012.1749,398.12638 c 0,0.43062 -0.2186,0.82818 -0.5878,1.14858 -0.1089,0.0945 0.3079,1.25647 0.1744,1.3365 -0.1462,0.0876 -0.8449,-0.90808 -1.0163,-0.84073 -0.448,0.17624 -0.974,0.27769 -1.5365,0.27769 -0.5206,0 -1.0098,-0.0869 -1.4351,-0.23949 -0.1393,-0.0498 -0.8818,1.01844 -1.0061,0.95509 -0.1482,-0.0754 0.3252,-1.28524 0.2017,-1.37728 -0.4526,-0.3374 -0.7268,-0.77816 -0.7268,-1.26036 10e-5,-1.06155 1.328,-1.92211 2.9663,-1.92211 1.6382,0 2.9661,0.86056 2.9662,1.92211 z"
           sodipodi:nodetypes="sssssssssss" /><g
           id="g716"
           transform="matrix(0.99994682,0,0,0.99994682,-2.9675222,209.18098)"><path
             style="opacity:1;fill:none;stroke:#000000;stroke-width:0.499999;stroke-linecap:round;stroke-linejoin:round;stroke-dasharray:none;stroke-opacity:1"
             d="m 2014.1264,193.65309 v 1.16695 c 0,0 0,0.35079 0.3391,0.65481 0.3391,0.30402 0.8068,0.37418 1.3096,0.18709 0.1871,-0.0935 0.3157,-0.24556 0.3157,-0.38587 0,-0.14032 0.01,-1.62298 0.01,-1.62298 z"
             id="path700"
             sodipodi:nodetypes="ccscscc" /><g
             id="g713"
             transform="matrix(-1.0900886,0,0,1.0900886,4203.1336,-17.627537)"><path
               style="opacity:1;fill:none;stroke:#000000;stroke-width:0.5;stroke-linecap:round;stroke-dasharray:none;stroke-opacity:1"
               d="m 2005.4969,196.73827 c 0,0 0.082,-0.97052 0.5847,-1.25115"
               id="path701"
               sodipodi:nodetypes="cc" /><path
               style="opacity:1;fill:none;stroke:#000000;stroke-width:0.5;stroke-linecap:round;stroke-dasharray:none;stroke-opacity:1"
               d="m 2007.9875,195.5222 c 0,0 0.4093,0.11108 0.4502,0.66066 0.041,0.54957 0.029,0.94713 0.029,0.94713 v 0 0"
               id="path702"
               sodipodi:nodetypes="csccc" /></g><path
             style="opacity:1;fill:none;stroke:#000000;stroke-width:0.479222;stroke-linecap:round;stroke-linejoin:round;stroke-dasharray:none;stroke-opacity:1"
             d="m 2016.0646,195.35232 1.3449,0.0224 -0.779,-2.17979 c 0,0 -0.2997,-0.82462 -1.4177,-0.84613 -1.1324,-0.02 -1.4612,1.10422 -1.4612,1.10422 -0.2324,0.89752 0.2696,1.21747 0.2696,1.21747"
             id="path715"
             sodipodi:nodetypes="cscccc" /></g><g
           id="g728"
           transform="matrix(0.99994682,0,0,0.99994682,-1.2497368,209.12251)"><g
             id="g682"
             transform="matrix(1.0900886,0,0,1.0900886,-180.75956,-17.568241)"><path
               style="opacity:1;fill:none;stroke:#000000;stroke-width:0.5;stroke-linecap:round;stroke-dasharray:none;stroke-opacity:1"
               d="m 2005.4969,196.73827 c 0,0 0.082,-0.97052 0.5847,-1.25115"
               id="path681"
               sodipodi:nodetypes="cc" /><path
               style="opacity:1;fill:none;stroke:#000000;stroke-width:0.5;stroke-linecap:round;stroke-dasharray:none;stroke-opacity:1"
               d="m 2007.9875,195.5222 c 0,0 0.4093,0.11108 0.4502,0.66066 0.041,0.54957 0.029,0.94713 0.029,0.94713 v 0 0"
               id="path682"
               sodipodi:nodetypes="csccc" /></g><g
             id="g726"><path
               style="opacity:1;fill:none;stroke:#000000;stroke-width:0.499999;stroke-linecap:round;stroke-linejoin:round;stroke-dasharray:none;stroke-opacity:1"
               d="m 2007.0795,195.74972 c 0,0 0.7651,0.0712 1.1199,-0.54571 0.059,-0.10298 0.091,-0.19953 0.1038,-0.33425 v -1.53437 c 0,0 -0.05,-0.87643 -1.1741,-0.9095 -1.1245,-0.0331 -1.2568,0.92604 -1.2568,0.92604 v 1.43928 c 0.012,0.13163 0.028,0.1939 0.081,0.30762 0.1405,0.23266 0.4779,0.6391 1.126,0.65089 z"
               id="path699"
               sodipodi:nodetypes="csccsccsc" /><path
               style="opacity:1;fill:none;stroke:#000000;stroke-width:0.499999;stroke-linecap:round;stroke-linejoin:round;stroke-dasharray:none;stroke-opacity:1"
               d="m 2006.7322,192.51744 c 0,0 0.1233,0.42168 0.4713,0.38034 0.3458,-0.0412 0.339,-0.35554 0.339,-0.35554"
               id="path719"
               sodipodi:nodetypes="csc" /></g></g></g></g></g></svg>
