<?xml version="1.0" encoding="UTF-8" standalone="no"?>
<!-- Created with Inkscape (http://www.inkscape.org/) -->

<svg
   width="1.7455164in"
   height="1.6983821in"
   viewBox="0 0 44.336117 43.138906"
   version="1.1"
   id="svg1"
   xml:space="preserve"
   inkscape:version="1.3.2 (091e20e, 2023-11-25, custom)"
   sodipodi:docname="icon set final.svg"
   xmlns:inkscape="http://www.inkscape.org/namespaces/inkscape"
   xmlns:sodipodi="http://sodipodi.sourceforge.net/DTD/sodipodi-0.dtd"
   xmlns="http://www.w3.org/2000/svg"
   xmlns:svg="http://www.w3.org/2000/svg"><sodipodi:namedview
     id="namedview1"
     pagecolor="#ffffff"
     bordercolor="#000000"
     borderopacity="0.25"
     inkscape:showpageshadow="2"
     inkscape:pageopacity="0.0"
     inkscape:pagecheckerboard="0"
     inkscape:deskcolor="#d1d1d1"
     inkscape:document-units="mm"
     inkscape:zoom="4"
     inkscape:cx="6681"
     inkscape:cy="1532.375"
     inkscape:window-width="1350"
     inkscape:window-height="729"
     inkscape:window-x="0"
     inkscape:window-y="0"
     inkscape:window-maximized="0"
     inkscape:current-layer="g934"
     showguides="true"
     showgrid="false"><sodipodi:guide
       position="1673.6019,1158.0035"
       orientation="0,-1"
       id="guide9"
       inkscape:locked="false" /><sodipodi:guide
       position="1710.1792,1167.0108"
       orientation="0,-1"
       id="guide2056"
       inkscape:locked="false" /><sodipodi:guide
       position="2400.9295,904.8915"
       orientation="1,0"
       id="guide764"
       inkscape:locked="false" /><sodipodi:guide
       position="2418.0481,903.58188"
       orientation="1,0"
       id="guide765"
       inkscape:locked="false" /><sodipodi:guide
       position="2790.7989,1180.9642"
       orientation="1,0"
       id="guide634"
       inkscape:locked="false" /><sodipodi:guide
       position="2760.8881,1073.9261"
       orientation="1,0"
       id="guide652"
       inkscape:locked="false" /><sodipodi:guide
       position="2769.5877,1169.809"
       orientation="1,0"
       id="guide669"
       inkscape:locked="false" /><sodipodi:guide
       position="81.2049,627.84795"
       orientation="1,0"
       id="guide283"
       inkscape:locked="false" /><sodipodi:guide
       position="78.12912,633.65846"
       orientation="0,-1"
       id="guide438"
       inkscape:locked="false" /><sodipodi:guide
       position="2285.2501,908.67008"
       orientation="0,-1"
       id="guide661"
       inkscape:locked="false" /><sodipodi:guide
       position="2275.8078,862.96331"
       orientation="0,-1"
       id="guide666"
       inkscape:locked="false" /><sodipodi:guide
       position="2284.1422,886.51123"
       orientation="0,-1"
       id="guide667"
       inkscape:locked="false" /><sodipodi:guide
       position="2297.563,842.0297"
       orientation="0,-1"
       id="guide668"
       inkscape:locked="false" /><sodipodi:guide
       position="2288.7698,823.8821"
       orientation="0,-1"
       id="guide670"
       inkscape:locked="false" /><sodipodi:guide
       position="2252.1005,843.7135"
       orientation="1,0"
       id="guide671"
       inkscape:locked="false" /><inkscape:page
       x="-3.5467381e-06"
       y="-7.3692056e-05"
       width="44.336117"
       height="43.138905"
       id="page10"
       margin="0"
       bleed="0" /></sodipodi:namedview><defs
     id="defs1" /><g
     id="g934"
     inkscape:groupmode="layer"
     inkscape:label="8"
     transform="matrix(0.26458333,0,0,0.26458334,829.46206,-1033.7519)"><g
       id="g276"
       style="stroke-width:1.13386;stroke-dasharray:none"
       transform="matrix(5.4195141,0,0,5.4195141,12166.319,-6127.9525)"
       inkscape:export-filename="..\ICON SET FILES\ICON SET SOURCE FILES\CHANNEL 1\telephone conversation.png"
       inkscape:export-xdpi="300"
       inkscape:export-ydpi="300"><g
         id="g9"
         style="fill:none;stroke:#000000;stroke-width:1.13386;stroke-dasharray:none;stroke-opacity:1"
         transform="translate(34.75)"><g
           id="g8"
           transform="matrix(1.5601517,0,0,1.5601517,1597.1549,-1042.3024)"
           style="fill:none;stroke:#000000;stroke-width:0.726762;stroke-dasharray:none;stroke-opacity:1"><g
             id="g2202-6"
             transform="matrix(0.21468865,0,0,0.21468865,-3177.1187,1639.1632)"
             style="fill:none;stroke:#000000;stroke-width:3.38519;stroke-dasharray:none;stroke-opacity:1" /></g><path
           style="fill:none;stroke:#000000;stroke-width:1.13386;stroke-dasharray:none;stroke-opacity:1"
           d="m -2837.4591,1879.3782 -1.1961,1.196 c -0.4114,0.4119 -0.9803,0.6283 -1.5614,0.5897 -1.3089,-0.085 -4.0557,-0.7838 -7.5585,-3.4686 -5.0188,-3.8467 -8.4246,-9.4418 -9.4696,-15.6782 -0.7121,-4.2515 -0.035,-6.9231 0.4896,-8.1154 0.2351,-0.5324 0.6889,-0.9371 1.2442,-1.1121 l 1.6132,-0.5079 c 0.6741,-0.2122 1.4005,0.1088 1.6974,0.7492 l 3.0238,6.5238 c 0.3266,0.7037 0.02,1.5391 -0.684,1.8653 l -1.8307,0.849 c -0.2241,0.1035 -0.3531,0.3418 -0.3177,0.5858 0.011,0.079 0.024,0.169 0.041,0.2692 0.6251,3.8031 2.6988,7.2212 5.7832,9.533 0.08,0.061 0.1543,0.1152 0.2195,0.1616 0.2004,0.1439 0.471,0.1398 0.6664,-0.011 l 1.5988,-1.2318 c 0.6146,-0.4736 1.4969,-0.3591 1.9707,0.2553 l 4.3888,5.6955 c 0.4307,0.5595 0.38,1.352 -0.1192,1.8514 z"
           id="path6-6-2" /></g><path
         id="rect2200-4"
         style="fill:none;stroke:#000000;stroke-width:1.13386;stroke-linecap:round;stroke-linejoin:round;stroke-dasharray:none;stroke-opacity:1"
         d="m -2806.6551,1853.9506 h 11.5334 c 1.1658,0 2.1044,0.9386 2.1044,2.1043 v 7.4224 c 0,1.1658 -0.9386,2.1044 -2.1044,2.1044 h -5.8605 l -3.7054,3.1821 -0.9211,-3.1821 h -1.0464 c -1.1657,0 -2.1043,-0.9386 -2.1043,-2.1044 v -7.4224 c 0,-1.1657 0.9386,-2.1043 2.1043,-2.1043 z"
         sodipodi:nodetypes="ssssscccssss" /><g
         id="g274"
         transform="matrix(0.87988319,0,0,0.87988319,-305.71734,222.567)"
         style="fill:none;stroke:#000000;stroke-width:1.28865;stroke-dasharray:none;stroke-opacity:1"><circle
           style="fill:none;fill-opacity:1;stroke:#000000;stroke-width:1.22341;stroke-linecap:round;stroke-linejoin:round;stroke-dasharray:none;stroke-opacity:1"
           id="path270"
           cx="-2839.6055"
           cy="1860.9015"
           r="0.90909892" /><circle
           style="fill:none;fill-opacity:1;stroke:#000000;stroke-width:1.22341;stroke-linecap:round;stroke-linejoin:round;stroke-dasharray:none;stroke-opacity:1"
           id="circle270"
           cx="-2835.7979"
           cy="1860.9015"
           r="0.90909892" /><circle
           style="fill:none;fill-opacity:1;stroke:#000000;stroke-width:1.22341;stroke-linecap:round;stroke-linejoin:round;stroke-dasharray:none;stroke-opacity:1"
           id="circle271"
           cx="-2831.9905"
           cy="1860.9015"
           r="0.90909892" /></g></g></g></svg>
