<?xml version="1.0" encoding="UTF-8" standalone="no"?>
<!DOCTYPE svg PUBLIC "-//W3C//DTD SVG 1.1//EN" "http://www.w3.org/Graphics/SVG/1.1/DTD/svg11.dtd">
<!-- Generated by Microsoft Visio, SVG Export new-patient1.svg Page-1 -->
<svg xmlns="http://www.w3.org/2000/svg" xmlns:xlink="http://www.w3.org/1999/xlink" xmlns:ev="http://www.w3.org/2001/xml-events"
		xmlns:v="http://schemas.microsoft.com/visio/2003/SVGExtensions/" width="8.94175in" height="11.3363in"
		viewBox="0 0 643.806 816.216" xml:space="preserve" color-interpolation-filters="sRGB" class="st7">
	<v:documentProperties v:langID="1044" v:metric="true" v:viewMarkup="false"/>

	<style type="text/css">
	<![CDATA[
		.st1 {fill:none}
		.st2 {stroke:#000000;stroke-width:25.3123}
		.st3 {stroke:#000000;stroke-width:25.2766}
		.st4 {stroke:#000000;stroke-width:37.7813}
		.st5 {fill:#000000;stroke:none;stroke-width:8.42551}
		.st6 {fill:none;stroke:#000000;stroke-linecap:round;stroke-linejoin:round;stroke-width:33.8344}
		.st7 {fill:none;fill-rule:evenodd;font-size:12px;overflow:visible;stroke-linecap:square;stroke-miterlimit:3}
	]]>
	</style>

	<g v:mID="0" v:index="1" v:groupContext="foregroundPage">
		<title>Page-1</title>
		<v:pageProperties v:drawingScale="0.0393701" v:pageScale="0.0393701" v:drawingUnits="24" v:shadowOffsetX="8.50394"
				v:shadowOffsetY="-8.50394"/>
		<g id="group5-1" transform="translate(166.618,-32.3961)" v:mID="5" v:groupContext="group">
			<title>Sheet.5</title>
			<g id="group6-2" v:mID="6" v:groupContext="group">
				<title>patient-arm</title>
				<g id="shape7-3" v:mID="7" v:groupContext="shape">
					<title>Sheet.7</title>
					<path d="M205.5 658.54 L81.74 658.54 C36.62 658.54 0 693.87 0 737.37 C0 780.89 36.62 816.22 81.74 816.22 L443.39
								 816.22 L205.5 658.54 Z" class="st1"/>
					<path d="M205.5 658.54 L81.74 658.54 C36.62 658.54 0 693.87 0 737.37 C0 780.89 36.62 816.22 81.74 816.22 L443.39
								 816.22" class="st2"/>
				</g>
				<g id="shape8-6" v:mID="8" v:groupContext="shape" transform="translate(541.116,100.227) rotate(30.3683)">
					<title>Sheet.8</title>
					<path d="M0 466.08 L2.25 816.22 L0 466.08 Z" class="st1"/>
					<path d="M0 466.08 L2.25 816.22" class="st3"/>
				</g>
			</g>
		</g>
		<g id="group9-9" transform="translate(28.9073,-37.7813)" v:mID="9" v:groupContext="group">
			<title>Sheet.9</title>
			<g id="group10-10" v:mID="10" v:groupContext="group">
				<title>female_4</title>
				<g id="shape11-11" v:mID="11" v:groupContext="shape" transform="translate(8.87408,2.38742E-12)">
					<title>Sheet.11</title>
					<path d="M0 816.22 L0 639.18 C0 551.96 70.81 481.15 158.03 481.15 L176.62 481.15 C204.61 506.58 241.79 522.08
								 282.55 522.08 C323.31 522.08 360.48 506.58 388.48 481.15 L410.21 481.15 C497.43 481.15 568.24 551.96
								 568.24 639.18 L568.24 815.48 L0 816.22 Z" class="st1"/>
					<path d="M0 816.22 L0 639.18 C0 551.96 70.81 481.15 158.03 481.15 L176.62 481.15 C204.61 506.58 241.79 522.08
								 282.55 522.08 C323.31 522.08 360.48 506.58 388.48 481.15 L410.21 481.15 C497.43 481.15 568.24 551.96
								 568.24 639.18 L568.24 815.48" class="st4"/>
				</g>
				<g id="shape12-14" v:mID="12" v:groupContext="shape" transform="translate(-6.39488E-14,-377.221)">
					<title>Sheet.12</title>
					<path d="M152.43 816.21 L0 815.85 L121.13 539.3 C148.81 471.42 215.46 423.51 293.22 423.43 C370.97 423.51 437.61
								 471.42 465.29 539.3 L586.42 815.85 L430.27 816.22 C442.23 794.01 449.02 768.6 449.02 741.63 L449.02
								 581.86 L133.69 581.86 L133.69 741.63 C133.69 768.6 140.48 794 152.43 816.21 Z" class="st5"/>
				</g>
				<g id="shape13-16" v:mID="13" v:groupContext="shape" transform="translate(449.023,1017.85) rotate(180)">
					<title>Sheet.13</title>
					<path d="M315.33 656.45 C315.33 569.43 244.68 498.78 157.66 498.78 C70.65 498.78 0 569.43 0 656.45 L0 816.22
								 L315.33 816.22 L315.33 656.45 Z" class="st6"/>
				</g>
			</g>
		</g>
	</g>
</svg>
