<?xml version="1.0" encoding="UTF-8" standalone="no"?>
<!-- Created with Inkscape (http://www.inkscape.org/) -->

<svg
   width="0.99908191in"
   height="1.2995642in"
   viewBox="0 0 25.376681 33.008931"
   version="1.1"
   id="svg1"
   xml:space="preserve"
   inkscape:version="1.3.2 (091e20e, 2023-11-25, custom)"
   sodipodi:docname="ACTOR ICON SET.svg"
   xmlns:inkscape="http://www.inkscape.org/namespaces/inkscape"
   xmlns:sodipodi="http://sodipodi.sourceforge.net/DTD/sodipodi-0.dtd"
   xmlns="http://www.w3.org/2000/svg"
   xmlns:svg="http://www.w3.org/2000/svg"><sodipodi:namedview
     id="namedview1"
     pagecolor="#ffffff"
     bordercolor="#000000"
     borderopacity="0.25"
     inkscape:showpageshadow="2"
     inkscape:pageopacity="0.0"
     inkscape:pagecheckerboard="0"
     inkscape:deskcolor="#d1d1d1"
     inkscape:document-units="in"
     inkscape:zoom="0.78750018"
     inkscape:cx="5230.475"
     inkscape:cy="2080.6344"
     inkscape:window-width="1366"
     inkscape:window-height="745"
     inkscape:window-x="-8"
     inkscape:window-y="-8"
     inkscape:window-maximized="1"
     inkscape:current-layer="g934"
     showguides="false"
     showgrid="false"><sodipodi:guide
       position="550.18896,533.27765"
       orientation="0,-1"
       id="guide9"
       inkscape:locked="false" /><sodipodi:guide
       position="586.76626,542.28494"
       orientation="0,-1"
       id="guide2056"
       inkscape:locked="false" /><sodipodi:guide
       position="435.86101,186.94411"
       orientation="0,-1"
       id="guide2186"
       inkscape:locked="false" /><sodipodi:guide
       position="272.57533,153.68221"
       orientation="0,-1"
       id="guide2187"
       inkscape:locked="false" /><sodipodi:guide
       position="207.32026,122.47972"
       orientation="0,-1"
       id="guide469"
       inkscape:locked="false" /><sodipodi:guide
       position="372.43338,255.7581"
       orientation="0,-1"
       id="guide635"
       inkscape:locked="false" /><sodipodi:guide
       position="415.90922,222.4979"
       orientation="0,-1"
       id="guide636"
       inkscape:locked="false" /><sodipodi:guide
       position="732.19426,89.342279"
       orientation="0,-1"
       id="guide659"
       inkscape:locked="false" /><sodipodi:guide
       position="285.95687,52.395729"
       orientation="0,-1"
       id="guide983"
       inkscape:locked="false" /><sodipodi:guide
       position="281.91813,19.848249"
       orientation="0,-1"
       id="guide984"
       inkscape:locked="false" /><sodipodi:guide
       position="657.27096,136.5473"
       orientation="1,0"
       id="guide1117"
       inkscape:locked="false" /><sodipodi:guide
       position="614.60166,146.45867"
       orientation="1,0"
       id="guide1197"
       inkscape:locked="false" /><sodipodi:guide
       position="254.26449,150.99438"
       orientation="1,0"
       id="guide1198"
       inkscape:locked="false" /><sodipodi:guide
       position="583.51686,-137.3062"
       orientation="0,-1"
       id="guide1417"
       inkscape:locked="false" /><sodipodi:guide
       position="674.57386,164.8535"
       orientation="0,-1"
       id="guide1530"
       inkscape:locked="false" /></sodipodi:namedview><defs
     id="defs1" /><g
     id="g934"
     inkscape:groupmode="layer"
     inkscape:label="8"
     transform="matrix(0.26458333,0,0,0.26458334,-293.95094,-409.02602)"><g
       id="g179"
       transform="matrix(0.686622,0,0,0.72010887,552.51412,821.74468)"
       style="stroke:#000000;stroke-width:5.24173;stroke-dasharray:none;stroke-opacity:1"
       inkscape:export-filename="ICON SET SOURCE FILES\customer 10.png"
       inkscape:export-xdpi="300"
       inkscape:export-ydpi="300"><g
         id="g175"
         transform="translate(-298.10717)"
         style="stroke:#000000;stroke-width:5.24173;stroke-dasharray:none;stroke-opacity:1"><path
           id="path174"
           style="opacity:1;fill:none;stroke:#000000;stroke-width:5.24173;stroke-linecap:round;stroke-linejoin:round;stroke-dasharray:none;stroke-opacity:1"
           d="m 1181.1016,1095.9905 c -14.0615,0 -23.5948,-9.3411 -28.2655,-23.0874 -0.1612,-0.4744 0.073,-2.4192 -0.5647,-2.497 -7.1264,-0.8683 -8.9213,-8.2131 -8.9994,-12.0951 -0.2191,-10.8966 3.0765,-10.5735 6.6435,-10.1341 0,0 -0.1308,-2.363 -0.014,-3.5375 2.058,-20.6388 9.6159,-36.3645 31.3746,-36.3645"
           sodipodi:nodetypes="csssssc" /><path
           id="path175"
           style="opacity:1;fill:none;stroke:#000000;stroke-width:5.24173;stroke-linecap:round;stroke-linejoin:round;stroke-dasharray:none;stroke-opacity:1"
           d="m 1181.5064,1095.9905 c 14.0615,0 23.5948,-9.3411 28.2655,-23.0874 0.1612,-0.4744 -0.073,-2.4192 0.5647,-2.497 7.1264,-0.8683 8.9213,-8.2131 8.9994,-12.0951 0.2191,-10.8966 -3.0765,-10.5735 -6.6435,-10.1341 0,0 0.1308,-2.363 0.014,-3.5375 -2.058,-20.6388 -9.6159,-36.3645 -31.3746,-36.3645"
           sodipodi:nodetypes="csssssc" /></g><g
         id="g178"
         transform="matrix(5.3181067,0,0,5.3181067,-16646.744,-173.49605)"
         style="stroke:#000000;stroke-width:0.985639;stroke-dasharray:none;stroke-opacity:1"><path
           style="opacity:1;fill:none;stroke:#000000;stroke-width:0.985639;stroke-linecap:round;stroke-linejoin:round;stroke-dasharray:none;stroke-opacity:1"
           d="m 3283.6386,253.80804 c 0,0 0.1726,-8.11377 2.2787,-10.63422 0.8632,-1.0358 2.0716,-1.62276 2.0716,-1.62276 0,0 4.3504,-1.20843 4.454,-3.24551 0.034,-0.72506 0.017,-1.27748 0.017,-1.27748"
           id="path176" /><path
           style="opacity:1;fill:none;stroke:#000000;stroke-width:0.985639;stroke-linecap:round;stroke-linejoin:round;stroke-dasharray:none;stroke-opacity:1"
           d="m 3308.9192,253.80804 c 0,0 -0.1726,-8.11377 -2.2787,-10.63422 -0.8632,-1.0358 -2.0716,-1.62276 -2.0716,-1.62276 0,0 -4.3504,-1.20843 -4.454,-3.24551 -0.034,-0.72506 -0.017,-1.27748 -0.017,-1.27748"
           id="path177" /><path
           style="opacity:1;fill:none;stroke:#000000;stroke-width:0.985639;stroke-linecap:round;stroke-linejoin:round;stroke-dasharray:none;stroke-opacity:1"
           d="m 3291.4287,240.47852 c 0,0 1.378,2.59902 4.7346,2.73348 3.3565,0.13445 5.1174,-2.62768 5.1174,-2.62768"
           id="path178" /></g><path
         style="fill:none;stroke:#000000;stroke-width:5.24173;stroke-linecap:round;stroke-linejoin:round;stroke-dasharray:none;stroke-opacity:1"
         d="m 895.17019,1148.2537 v 5.7143 h 23.8095 v -5.0794"
         id="path179" /></g></g></svg>
